<?xml version="1.0" standalone="no"?>
<!DOCTYPE svg PUBLIC "-//W3C//DTD SVG 20010904//EN"
 "http://www.w3.org/TR/2001/REC-SVG-20010904/DTD/svg10.dtd">
<svg version="1.0" xmlns="http://www.w3.org/2000/svg"
 width="782.000000pt" height="782.000000pt" viewBox="0 0 782.000000 782.000000"
 preserveAspectRatio="xMidYMid meet">
<metadata>
Created by potrace 1.11, written by Peter Selinger 2001-2013
</metadata>
<g transform="translate(0.000000,782.000000) scale(0.100000,-0.100000)"
fill="#000000" stroke="none">
<path d="M4540 6436 c-497 -116 -739 -458 -740 -1041 l0 -100 -288 -1 c-379
-1 -597 -26 -927 -104 -775 -185 -1452 -605 -2022 -1257 -39 -45 -74 -78 -78
-75 -4 4 -5 2 -3 -4 2 -6 -35 -58 -81 -116 -46 -58 -106 -139 -133 -179 -61
-91 -197 -366 -235 -474 -27 -77 -28 -88 -28 -265 0 -162 3 -195 23 -265 35
-124 91 -216 197 -323 50 -51 91 -94 91 -95 -1 -1 0 -1 2 0 2 0 36 -23 75 -53
88 -66 159 -104 347 -184 1085 -464 2133 -542 3070 -231 308 103 703 290 918
435 41 28 43 28 62 11 11 -10 17 -23 13 -29 -3 -6 -3 -8 1 -4 4 3 43 -33 85
-80 479 -532 896 -721 1293 -586 104 35 182 82 341 206 494 387 871 750 1083
1044 86 119 178 305 200 400 37 167 2 309 -104 424 -48 54 -55 57 -169 93 -65
21 -152 44 -193 53 -104 21 -411 29 -550 15 -62 -7 -114 -11 -115 -9 -2 2 6
37 16 78 27 101 35 256 20 361 -28 192 -132 417 -277 596 -19 23 -34 45 -34
50 0 4 37 28 83 52 273 146 501 338 572 483 35 73 37 80 33 160 -5 115 -29
160 -146 276 -51 50 -98 92 -103 92 -4 0 -55 30 -111 67 -151 97 -237 147
-346 199 -352 169 -902 330 -1261 370 -193 21 -511 27 -581 10z"/>
</g>
</svg>
